<svg viewBox="0 0 1256.28 161.26" xmlns="http://www.w3.org/2000/svg" width="1256" height="161"><g fill="#fff"><path d="M54.45 161.26v-22.58h37.49V88.76H54.45V66.18h37.49V11.75C99.85 3.84 111.82 0 122.66 0 146.6 0 164 19.42 164 42.91v118.35zM99 66.18h14.9c13.78 0 27.56-7.68 27.56-23 0-11.52-8.59-20.55-20.1-20.55C106 22.59 99 37.49 99 51zm0 72.5h58V66.85c-13.78 21.69-33.88 21.91-56.69 21.91H99zM184.32 161.26V3.16h89.9c25.52 0 46.07 19.43 46.07 45.17v25.75c0 27.33-3.16 87.18-41.78 87.18h-36.37a30.11 30.11 0 0 1-5.87-17.84c0-22.81 26.2-39.52 43.37-50.14a42.81 42.81 0 0 1-5.42.23h-67.31v67.75zm22.59-135.51v45.17h62.79c13.78 0 27.1-7.45 27.1-22.59 0-14.9-13.55-22.58-27.1-22.58zm71.37 128.74c33.65 0 35.91-59.85 35.91-83.12-12.19 20.78-55.33 31.17-55.33 63.47 0 11.97 7.45 19.65 19.42 19.65zM447.23 138.68v22.58H336.1V10.84C343.78 4.29 353 0 363.43 0c25.07 0 40.43 22.81 40.43 46.08v92.6zm-66 0V9.49c-34.33-.23-38.4 38.39-38.4 64.59v64.6zM458.52 3.16h46.08l42 147V64.6C546.61 36.14 552 0 587.94 0c30.49 0 43.14 24.17 43.14 51.72v45.85c0 19.43-.68 63.69-28.68 63.69h-30.72a47 47 0 0 1-8.36-27.32c0-38.63 43.82-53.31 43.82-91.7 0-15.36-7.23-28.46-24.17-28.46-26 0-29.59 31.17-29.59 50.82v96.66h-27.1L481.11 3.16v158.1h-22.59zm144.33 151.33c21.91 0 22.36-40 22.58-54.89l.46-49.46c-.68 38-40 59.18-40 85.15.02 9.94 6.11 19.2 16.96 19.2zM640.12 138.9c0-38.17 45.85-49.69 45.85-96.21 0-9.71-3.61-31.17-8.58-39.53h24.17l61.66 158.1h-24.17l-23.27-59.4c1.81 23-3.38 59.4-33.42 59.4H646.9a37.76 37.76 0 0 1-6.78-22.36zm22.59-5.19c0 12.2 7 20.78 19.65 20.78 22.58 0 27.78-26.43 27.78-44 0-26.88-9.71-48.11-19.2-72.5 2.94 43.77-28.23 67.26-28.23 95.72zM765.93 3.16l23.26 59.4c-1.8-23 3.39-59.4 33.43-59.4h35.46a37.85 37.85 0 0 1 6.78 22.36c0 38.4-45.86 49.48-45.86 96.22 0 9.49 3.84 31.84 8.58 39.52h-24.16L741.76 3.16zm76.34 27.56c0-12.2-7-20.78-19.65-20.78-22.59 0-27.78 26.42-27.78 44 0 27.1 9.49 47.66 19.2 72.5-2.94-44 28.23-68.17 28.23-95.72zM988.18 3.16c-25.3 6.33-67.08 31.4-67.08 61 0 12 6.77 21.24 19.42 21.24 19.65 0 30-22.14 30-39.3v52.4a41.91 41.91 0 0 1-26.43 9.26c-21.68 0-32.52-16-32.52-36.37 0-18.52 8.81-33.65 22.59-45.62H901v112.91h69.79v22.58h-92.38V3.16zM991.57 161.26V3.16h89.89c25.52 0 46.08 19.43 46.08 45.17v25.75c0 27.33-3.17 87.18-41.79 87.18h-36.36a30.11 30.11 0 0 1-5.87-17.84c0-22.81 26.2-39.52 43.36-50.14a42.73 42.73 0 0 1-5.42.23h-67.31v67.75zm22.58-135.51v45.17h62.79c13.78 0 27.11-7.45 27.11-22.59 0-14.9-13.56-22.58-27.11-22.58zm71.38 128.74c33.65 0 35.91-59.85 35.91-83.12-12.2 20.78-55.34 31.17-55.34 63.47 0 11.97 7.45 19.65 19.43 19.65zM1133.19 138.9c0-38.17 45.85-49.69 45.85-96.21 0-9.71-3.62-31.17-8.59-39.53h24.17l61.66 158.1h-24.17l-23.26-59.4c1.81 23-3.39 59.4-33.43 59.4H1140a37.82 37.82 0 0 1-6.81-22.36zm22.58-5.19c0 12.2 7 20.78 19.65 20.78 22.59 0 27.78-26.43 27.78-44 0-26.88-9.71-48.11-19.19-72.5 2.93 43.77-28.24 67.26-28.24 95.72z"/><circle cx="16.57" cy="77.47" r="16.57"/></g></svg>