<svg xmlns="http://www.w3.org/2000/svg" viewBox="0 0 133.64 165.83"><defs><style>.cls-1,.cls-2{fill:none;stroke:#1f1f1f;stroke-miterlimit:10;}.cls-1{stroke-width:3px;}.cls-2{stroke-width:0.5px;}</style></defs><g id="Layer_2" data-name="Layer 2"><g id="Layer_1-2" data-name="Layer 1"><rect class="cls-1" x="1.5" y="1.5" width="130.64" height="162.83" rx="65.32"/><path class="cls-2" d="M100,83.45C71.84,60.21,49.42,47.82,4.53,44"/><path class="cls-2" d="M45.82,51.57c-7,30.41-4.08,71,16.32,113"/><path class="cls-2" d="M30.53,47.37c-7.84,37.24-2.32,77.33,14.72,114"/><path class="cls-2" d="M15.64,45.37c-6.42,34.44-5.42,70.72,9.12,103.71"/><path class="cls-2" d="M45.69,115.19c34-13.37,61.73-31.37,83.51-66.48"/><path class="cls-2" d="M49,129.63C83,116.26,110.75,101.15,132.53,66"/><path class="cls-2" d="M53.36,143.24c32.4-11.15,63.61-28.53,79.17-55.87"/><path class="cls-2" d="M59.18,158.51c33.06-10.48,60.24-28.36,72.68-48.14"/><path class="cls-2" d="M110.76,73.31C84.29,49.81,58.09,32.71,13.2,30"/><path class="cls-2" d="M120.49,61.39c-25.44-23-52.18-43.13-96.18-44.46"/><path class="cls-2" d="M129.2,48.71C107.2,26.49,84.31,9.6,42.53,6"/></g></g></svg>