<svg xmlns="http://www.w3.org/2000/svg" viewBox="0 0 136.48 168.8"><defs><style>.cls-1{fill:#ddd;}</style></defs><g id="Layer_2" data-name="Layer 2"><g id="Layer_1-2" data-name="Layer 1"><path class="cls-1" d="M68.25,168.8c-31.69.26-60.87-23.59-66.85-54.7C-.74,105.36.25,92.85.1,83.9c.3-9-.62-21.41,1.6-30.13C7.93,23,36.87-.47,68.25,0c31.38-.47,60.33,23,66.56,53.76C137,62.45,136.16,75,136.4,83.9c-.2,9,.83,21.42-1.3,30.2-6,31.1-35.16,55-66.85,54.7Zm0-7c28.69.54,55.27-20.85,61-49,2.1-8.05,1.25-20.59,1.5-29-.22-8.44.8-20.87-1.21-29C124.07,26.38,97.25,4.63,68.25,5,39.26,4.63,12.43,26.38,7,54.88c-2,8.1-1,20.62-1.21,29,.31,8.41-.59,20.87,1.5,29,5.72,28.11,32.3,49.51,61,49Z"/><path class="cls-1" d="M47.76,52.25c-8,38.08.31,78.08,17.38,112.53L62,166.31C45.47,131,37.94,90.38,46.83,52l.93.22Z"/><path class="cls-1" d="M32.33,48.44c-7.51,38.18-.66,78.28,16.12,113.07l-3.55,1.65C28.84,127.45,23,86.63,31.59,48.28l.74.16Z"/><path class="cls-1" d="M17.57,46.45c-5.93,34.33-4.16,70.91,10.57,102.76l-3.89,1.72c-14-33-14.75-70-7.67-104.66l1,.18Z"/><path class="cls-1" d="M46.9,115.63c33-13.17,61.61-33.47,80.53-63.95l.91-1.42.46-.71c.13-.25.29-.48,1-.38l1.7,1c.37.57.22.81.05,1-.26.42-1.13,1.71-1.42,2.15a150.08,150.08,0,0,1-57.8,52.32,230.84,230.84,0,0,1-25,11l-.43-1.09Z"/><path class="cls-1" d="M50.33,130.33c34.5-13.67,62.9-31.58,82.15-64.22l3,1.83c-14.35,23-35.68,41.12-60.18,52.53-8.06,3.9-16.35,7.28-24.7,10.44l-.23-.58Z"/><path class="cls-1" d="M55.45,143.62c30-11,60.83-27.4,76.9-56.18l3.22,1.84c-17.22,28.87-49.06,44.8-79.9,55l-.22-.66Z"/><path class="cls-1" d="M60,158.89c25-8.94,52.12-22.69,68.58-44.11.84-1,1.58-2.24,2.32-3.33.35-.6.63-.77,1.55-.62l1.69,1.06a1.45,1.45,0,0,1,.34,1.06,16,16,0,0,1-1.18,1.81c-12.72,17.7-32,29.52-51.73,38.1a191.85,191.85,0,0,1-21.11,7.49L60,158.89Z"/><path class="cls-1" d="M101.05,84.86C72.72,62.08,48.74,51,12.31,47.47L7.43,47c-.53-.16-1.11.28-1.55-1l.17-2c.65-1.17,1.16-.62,1.71-.67l1.65.18C35.23,46,59.48,52.81,81,67.73A231.42,231.42,0,0,1,101.76,84l-.71.86Z"/><path class="cls-1" d="M112,75c-29-25.78-58.31-40.46-97.52-42.11l.22-3.64c27.57,1.71,54.72,10.84,76.91,27.44a249.29,249.29,0,0,1,21.17,17.43L112,75Z"/><path class="cls-1" d="M121.23,62.46C93,37,64.66,20.12,25.69,19.61l.1-3.39a128.58,128.58,0,0,1,75.43,28c7.19,5.49,14,11.47,20.59,17.59l-.58.64Z"/><path class="cls-1" d="M130.45,49.87C105.43,24.62,79.6,11,43.83,8.61l.27-3.17c24.86,2.25,49.32,11,68.56,27.18a201.46,201.46,0,0,1,18.15,16.9l-.36.35Z"/></g></g></svg>