<svg viewBox="0 0 1256.28 161.26" xmlns="http://www.w3.org/2000/svg" width="1256" height="161"><g fill="#fff"><path d="m54.45 161.26v-22.58h37.49v-49.92h-37.49v-22.58h37.49v-54.43c7.91-7.91 19.88-11.75 30.72-11.75 23.94 0 41.34 19.42 41.34 42.91v118.35zm44.55-95.08h14.9c13.78 0 27.56-7.68 27.56-23 0-11.52-8.59-20.55-20.1-20.55-15.36-.04-22.36 14.86-22.36 28.37zm0 72.5h58v-71.83c-13.78 21.69-33.88 21.91-56.69 21.91h-1.31z"/><path d="m184.32 161.26v-158.1h89.9c25.52 0 46.07 19.43 46.07 45.17v25.75c0 27.33-3.16 87.18-41.78 87.18h-36.37a30.11 30.11 0 0 1 -5.87-17.84c0-22.81 26.2-39.52 43.37-50.14a42.81 42.81 0 0 1 -5.42.23h-67.31v67.75zm22.59-135.51v45.17h62.79c13.78 0 27.1-7.45 27.1-22.59 0-14.9-13.55-22.58-27.1-22.58zm71.37 128.74c33.65 0 35.91-59.85 35.91-83.12-12.19 20.78-55.33 31.17-55.33 63.47 0 11.97 7.45 19.65 19.42 19.65z"/><path d="m447.23 138.68v22.58h-111.13v-150.42c7.68-6.55 16.9-10.84 27.33-10.84 25.07 0 40.43 22.81 40.43 46.08v92.6zm-66 0v-129.19c-34.33-.23-38.4 38.39-38.4 64.59v64.6z"/><path d="m458.52 3.16h46.08l42 147v-85.56c.01-28.46 5.4-64.6 41.34-64.6 30.49 0 43.14 24.17 43.14 51.72v45.85c0 19.43-.68 63.69-28.68 63.69h-30.72a47 47 0 0 1 -8.36-27.32c0-38.63 43.82-53.31 43.82-91.7 0-15.36-7.23-28.46-24.17-28.46-26 0-29.59 31.17-29.59 50.82v96.66h-27.1l-45.17-158.1v158.1h-22.59zm144.33 151.33c21.91 0 22.36-40 22.58-54.89l.46-49.46c-.68 38-40 59.18-40 85.15.02 9.94 6.11 19.2 16.96 19.2z"/><path d="m640.12 138.9c0-38.17 45.85-49.69 45.85-96.21 0-9.71-3.61-31.17-8.58-39.53h24.17l61.66 158.1h-24.17l-23.27-59.4c1.81 23-3.38 59.4-33.42 59.4h-35.46a37.76 37.76 0 0 1 -6.78-22.36zm22.59-5.19c0 12.2 7 20.78 19.65 20.78 22.58 0 27.78-26.43 27.78-44 0-26.88-9.71-48.11-19.2-72.5 2.94 43.77-28.23 67.26-28.23 95.72z"/><path d="m765.93 3.16 23.26 59.4c-1.8-23 3.39-59.4 33.43-59.4h35.46a37.85 37.85 0 0 1 6.78 22.36c0 38.4-45.86 49.48-45.86 96.22 0 9.49 3.84 31.84 8.58 39.52h-24.16l-61.66-158.1zm76.34 27.56c0-12.2-7-20.78-19.65-20.78-22.59 0-27.78 26.42-27.78 44 0 27.1 9.49 47.66 19.2 72.5-2.94-44 28.23-68.17 28.23-95.72z"/><path d="m988.18 3.16c-25.3 6.33-67.08 31.4-67.08 61 0 12 6.77 21.24 19.42 21.24 19.65 0 30-22.14 30-39.3v52.4a41.91 41.91 0 0 1 -26.43 9.26c-21.68 0-32.52-16-32.52-36.37 0-18.52 8.81-33.65 22.59-45.62h-33.16v112.91h69.79v22.58h-92.38v-158.1z"/><path d="m991.57 161.26v-158.1h89.89c25.52 0 46.08 19.43 46.08 45.17v25.75c0 27.33-3.17 87.18-41.79 87.18h-36.36a30.11 30.11 0 0 1 -5.87-17.84c0-22.81 26.2-39.52 43.36-50.14a42.73 42.73 0 0 1 -5.42.23h-67.31v67.75zm22.58-135.51v45.17h62.79c13.78 0 27.11-7.45 27.11-22.59 0-14.9-13.56-22.58-27.11-22.58zm71.38 128.74c33.65 0 35.91-59.85 35.91-83.12-12.2 20.78-55.34 31.17-55.34 63.47 0 11.97 7.45 19.65 19.43 19.65z"/><path d="m1133.19 138.9c0-38.17 45.85-49.69 45.85-96.21 0-9.71-3.62-31.17-8.59-39.53h24.17l61.66 158.1h-24.17l-23.26-59.4c1.81 23-3.39 59.4-33.43 59.4h-35.42a37.82 37.82 0 0 1 -6.81-22.36zm22.58-5.19c0 12.2 7 20.78 19.65 20.78 22.59 0 27.78-26.43 27.78-44 0-26.88-9.71-48.11-19.19-72.5 2.93 43.77-28.24 67.26-28.24 95.72z"/><circle cx="16.57" cy="77.47" r="16.57"/></g></svg>